<svg viewBox="0 0 24 24" preserveAspectRatio="none" xmlns="http://www.w3.org/2000/svg">
<path d="M22.2806 9.97033L14.7806 2.47033C14.6758 2.36538 14.5422 2.29387 14.3967 2.26486C14.2512 2.23584 14.1004 2.25061 13.9633 2.30731C13.8263 2.36401 13.7091 2.46008 13.6266 2.58339C13.5441 2.70669 13.5001 2.85168 13.5 3.00002V6.78283C11.0681 6.99096 8.38218 8.18158 6.1725 10.0556C3.51187 12.3131 1.85531 15.2222 1.5075 18.2466C1.48032 18.4817 1.52799 18.7194 1.64374 18.9259C1.75948 19.1324 1.9374 19.2971 2.15217 19.3966C2.36695 19.496 2.60763 19.5253 2.83997 19.48C3.07231 19.4348 3.28446 19.3175 3.44625 19.1447C4.4775 18.0469 8.14687 14.5753 13.5 14.2697V18C13.5001 18.1484 13.5441 18.2934 13.6266 18.4167C13.7091 18.54 13.8263 18.636 13.9633 18.6927C14.1004 18.7494 14.2512 18.7642 14.3967 18.7352C14.5422 18.7062 14.6758 18.6347 14.7806 18.5297L22.2806 11.0297C22.4209 10.8891 22.4996 10.6986 22.4996 10.5C22.4996 10.3014 22.4209 10.1109 22.2806 9.97033ZM15 16.1897V13.5C15 13.3011 14.921 13.1103 14.7803 12.9697C14.6397 12.829 14.4489 12.75 14.25 12.75C11.6175 12.75 9.05343 13.4372 6.62906 14.7938C5.39432 15.4877 4.24388 16.322 3.20062 17.28C3.74437 15.045 5.115 12.9197 7.14281 11.1994C9.31968 9.35346 11.9766 8.25002 14.25 8.25002C14.4489 8.25002 14.6397 8.171 14.7803 8.03035C14.921 7.8897 15 7.69893 15 7.50002V4.81127L20.6897 10.5L15 16.1897Z" />
</svg>
